<?xml version="1.0" encoding="UTF-8" standalone="no"?>
<!-- Created with Inkscape (http://www.inkscape.org/) -->

<svg
   xmlns:dc="http://purl.org/dc/elements/1.1/"
   xmlns:cc="http://creativecommons.org/ns#"
   xmlns:rdf="http://www.w3.org/1999/02/22-rdf-syntax-ns#"
   xmlns:svg="http://www.w3.org/2000/svg"
   xmlns="http://www.w3.org/2000/svg"
   xmlns:xlink="http://www.w3.org/1999/xlink"
   xmlns:sodipodi="http://sodipodi.sourceforge.net/DTD/sodipodi-0.dtd"
   xmlns:inkscape="http://www.inkscape.org/namespaces/inkscape"
   width="473.78125"
   height="429.28125"
   id="svg2"
   version="1.1"
   inkscape:version="0.48.1 r9760"
   sodipodi:docname="booth.svg"
   >
  <sodipodi:namedview
     id="base"
     pagecolor="#ffffff"
     bordercolor="#666666"
     borderopacity="1.0"
     inkscape:pageopacity="0.0"
     inkscape:pageshadow="2"
     inkscape:zoom="0.30343913"
     inkscape:cx="-414.34375"
     inkscape:cy="-53.049683"
     inkscape:document-units="px"
     inkscape:current-layer="svg2"
     showgrid="false"
     inkscape:window-width="1280"
     inkscape:window-height="748"
     inkscape:window-x="0"
     inkscape:window-y="0"
     inkscape:window-maximized="1"
     showguides="false"
     inkscape:snap-global="true"
     objecttolerance="20"
     width="744.09px"
     fit-margin-top="0"
     fit-margin-left="0"
     fit-margin-right="0"
     fit-margin-bottom="0">
    <inkscape:grid
       id="grid4805"
       type="xygrid"
       empspacing="5"
       visible="true"
       enabled="true"
       snapvisiblegridlinesonly="true" />
  </sodipodi:namedview>
  <defs
     id="defs4">
    <linearGradient
       id="linearGradient4026">
      <stop
         style="stop-color:#ffffff;stop-opacity:1;"
         offset="0"
         id="stop4028" />
      <stop
         style="stop-color:#00ff00;stop-opacity:0;"
         offset="1"
         id="stop4030" />
    </linearGradient>
    <linearGradient
       inkscape:collect="always"
       id="linearGradient3880">
      <stop
         style="stop-color:#00ff00;stop-opacity:1;"
         offset="0"
         id="stop3882" />
      <stop
         style="stop-color:#00ff00;stop-opacity:0;"
         offset="1"
         id="stop3884" />
    </linearGradient>
    <linearGradient
       inkscape:collect="always"
       id="linearGradient3854">
      <stop
         style="stop-color:#00ff00;stop-opacity:1;"
         offset="0"
         id="stop3856" />
      <stop
         style="stop-color:#00ff00;stop-opacity:0;"
         offset="1"
         id="stop3858" />
    </linearGradient>
    <linearGradient
       id="linearGradient3840">
      <stop
         style="stop-color:#ffffff;stop-opacity:1;"
         offset="0"
         id="stop3842" />
      <stop
         style="stop-color:#00ff00;stop-opacity:0;"
         offset="1"
         id="stop3844" />
    </linearGradient>
    <linearGradient
       id="linearGradient3822">
      <stop
         style="stop-color:#ffffff;stop-opacity:0.50980395;"
         offset="0"
         id="stop3824" />
      <stop
         style="stop-color:#00ff00;stop-opacity:0;"
         offset="1"
         id="stop3826" />
    </linearGradient>
    <linearGradient
       id="linearGradient3810">
      <stop
         style="stop-color:#ffffff;stop-opacity:0.50980395;"
         offset="0"
         id="stop3812" />
      <stop
         style="stop-color:#ff8e23;stop-opacity:0;"
         offset="1"
         id="stop3814" />
    </linearGradient>
    <linearGradient
       id="linearGradient3800">
      <stop
         style="stop-color:#ffffff;stop-opacity:0.49593496;"
         offset="0"
         id="stop3802" />
      <stop
         style="stop-color:#f92929;stop-opacity:0;"
         offset="1"
         id="stop3804" />
    </linearGradient>
    <linearGradient
       id="linearGradient3790">
      <stop
         style="stop-color:#ffffff;stop-opacity:1;"
         offset="0"
         id="stop3792" />
      <stop
         style="stop-color:#f92929;stop-opacity:0;"
         offset="1"
         id="stop3794" />
    </linearGradient>
    <filter
       inkscape:collect="always"
       id="filter5445"
       color-interpolation-filters="sRGB">
      <feGaussianBlur
         inkscape:collect="always"
         stdDeviation="0.33554694"
         id="feGaussianBlur5447" />
    </filter>
    <filter
       inkscape:collect="always"
       id="filter5449"
       color-interpolation-filters="sRGB">
      <feGaussianBlur
         inkscape:collect="always"
         stdDeviation="0.22061072"
         id="feGaussianBlur5451" />
    </filter>
    <filter
       inkscape:collect="always"
       id="filter5465"
       x="-0.076877944"
       width="1.1537559"
       y="-0.18145899"
       height="1.362918"
       color-interpolation-filters="sRGB">
      <feGaussianBlur
         inkscape:collect="always"
         stdDeviation="12.715347"
         id="feGaussianBlur5467" />
    </filter>
    <linearGradient
       inkscape:collect="always"
       xlink:href="#linearGradient3822"
       id="linearGradient3828"
       x1="-45.854221"
       y1="-2.765532"
       x2="44.865398"
       y2="-2.765532"
       gradientUnits="userSpaceOnUse" />
    <linearGradient
       inkscape:collect="always"
       xlink:href="#linearGradient3822"
       id="linearGradient3830"
       gradientUnits="userSpaceOnUse"
       x1="-45.854221"
       y1="-2.765532"
       x2="44.865398"
       y2="-2.765532" />
    <linearGradient
       inkscape:collect="always"
       xlink:href="#linearGradient3840"
       id="linearGradient3846"
       x1="-45.055939"
       y1="-2.765532"
       x2="44.067116"
       y2="-2.765532"
       gradientUnits="userSpaceOnUse" />
    <linearGradient
       inkscape:collect="always"
       xlink:href="#linearGradient3840"
       id="linearGradient3848"
       gradientUnits="userSpaceOnUse"
       x1="-45.055939"
       y1="-2.765532"
       x2="44.067116"
       y2="-2.765532" />
    <linearGradient
       inkscape:collect="always"
       xlink:href="#linearGradient3854"
       id="linearGradient3860"
       x1="-45.055939"
       y1="-2.765532"
       x2="44.067116"
       y2="-2.765532"
       gradientUnits="userSpaceOnUse" />
    <linearGradient
       inkscape:collect="always"
       xlink:href="#linearGradient3854"
       id="linearGradient3862"
       gradientUnits="userSpaceOnUse"
       x1="-45.055939"
       y1="-2.765532"
       x2="44.067116"
       y2="-2.765532" />
    <filter
       inkscape:collect="always"
       id="filter3872"
       color-interpolation-filters="sRGB">
      <feGaussianBlur
         inkscape:collect="always"
         stdDeviation="1.3422606"
         id="feGaussianBlur3874" />
    </filter>
    <linearGradient
       inkscape:collect="always"
       xlink:href="#linearGradient3880"
       id="linearGradient3886"
       x1="-45.854221"
       y1="-2.765532"
       x2="44.865398"
       y2="-2.765532"
       gradientUnits="userSpaceOnUse" />
    <linearGradient
       inkscape:collect="always"
       xlink:href="#linearGradient3880"
       id="linearGradient3888"
       gradientUnits="userSpaceOnUse"
       x1="-45.854221"
       y1="-2.765532"
       x2="44.865398"
       y2="-2.765532" />
    <linearGradient
       inkscape:collect="always"
       xlink:href="#linearGradient4026"
       id="linearGradient4032"
       x1="-43.12241"
       y1="-24.893242"
       x2="43.510132"
       y2="16.907894"
       gradientUnits="userSpaceOnUse" />
    <filter
       inkscape:collect="always"
       id="filter3844"
       x="-0.18541303"
       width="1.3708261"
       y="-0.076189578"
       height="1.1523792"
       color-interpolation-filters="sRGB">
      <feGaussianBlur
         inkscape:collect="always"
         stdDeviation="9.5146138"
         id="feGaussianBlur3846" />
    </filter>
    <filter
       inkscape:collect="always"
       id="filter3848"
       color-interpolation-filters="sRGB">
      <feGaussianBlur
         inkscape:collect="always"
         stdDeviation="2.6668853"
         id="feGaussianBlur3850" />
    </filter>
    <filter
       inkscape:collect="always"
       id="filter3852"
       color-interpolation-filters="sRGB">
      <feGaussianBlur
         inkscape:collect="always"
         stdDeviation="6.4352249"
         id="feGaussianBlur3854" />
    </filter>
    <linearGradient
       inkscape:collect="always"
       xlink:href="#linearGradient3800"
       id="linearGradient3881"
       gradientUnits="userSpaceOnUse"
       x1="339.82782"
       y1="547.18732"
       x2="588.66339"
       y2="649.78125" />
    <linearGradient
       inkscape:collect="always"
       xlink:href="#linearGradient4026"
       id="linearGradient3885"
       gradientUnits="userSpaceOnUse"
       x1="-43.12241"
       y1="-24.893242"
       x2="43.510132"
       y2="16.907894" />
    <linearGradient
       inkscape:collect="always"
       xlink:href="#linearGradient4026"
       id="linearGradient3887"
       gradientUnits="userSpaceOnUse"
       x1="-43.12241"
       y1="-24.893242"
       x2="43.510132"
       y2="16.907894" />
    <linearGradient
       inkscape:collect="always"
       xlink:href="#linearGradient3810"
       id="linearGradient3889"
       gradientUnits="userSpaceOnUse"
       gradientTransform="matrix(0.86709718,0.49813901,-0.49813901,0.86709718,285.35601,54.936695)"
       x1="213.63722"
       y1="512.59821"
       x2="398.09091"
       y2="510.43549" />
    <linearGradient
       inkscape:collect="always"
       xlink:href="#linearGradient3810"
       id="linearGradient3895"
       gradientUnits="userSpaceOnUse"
       gradientTransform="matrix(0.86709718,0.49813901,-0.49813901,0.86709718,121.40603,-492.51307)"
       x1="231.72598"
       y1="513.76562"
       x2="367.55539"
       y2="513.76562" />
  </defs>
  <metadata
     id="metadata7">
    <rdf:RDF>
      <cc:Work
         rdf:about="">
        <dc:format>image/svg+xml</dc:format>
        <dc:type
           rdf:resource="http://purl.org/dc/dcmitype/StillImage" />
        <dc:title />
      </cc:Work>
    </rdf:RDF>
  </metadata>
  <g
     id="layer1"
     inkscape:groupmode="layer"
     inkscape:label="Layer 1"
     transform="translate(-168.34375,-411.53125)" />
  <rect
     style="fill:none;stroke:#000000;stroke-width:0.5;stroke-miterlimit:4;stroke-opacity:1;stroke-dasharray:none"
     id="rect3075"
     width="473.26749"
     height="428.76297"
     x="0.26324463"
     y="0.26370239"
     ry="1.5655379"
      />
  <g
     inkscape:label="Gear24"
     transform="matrix(1.5553435,0,0,1.5553435,284.72128,183.1817)"
     id="g4546" />
  <path
     inkscape:connector-curvature="0"
     style="fill:#ec0b0f;fill-opacity:1;stroke:none"
     d="m 281.1875,54.5 -4.25,10.125 -1.1875,7.25 0.21875,2.75 -10.90625,1.4375 -0.5,-2.6875 -3.03125,-6.71875 -6.6875,-8.6875 L 248,59.8125 246.53125,70.65625 247.25,78 248.1875,80.5625 238,84.78125 l -1.15625,-2.46875 -4.6875,-5.6875 -8.6875,-6.65625 -6.15625,3.5625 1.40625,10.84375 2.59375,6.90625 1.5625,2.25 -8.75,6.6875 -1.75,-2.0625 -6,-4.3125 -10.125,-4.15625 -5.03125,5 4.15625,10.15625 4.3125,5.96875 2.09375,1.78125 -6.71875,8.71875 -2.25,-1.53125 -6.875,-2.625 -10.875,-1.375 -3.53125,6.125 6.625,8.71875 5.6875,4.65625 2.5,1.1875 -4.21875,10.15625 -2.59375,-0.90625 -7.3125,-0.71875 -10.875,1.46875 -1.8125,6.84375 8.65625,6.6875 6.71875,3.03125 2.6875,0.5 -1.4375,10.90625 -2.71875,-0.21875 -7.28125,1.1875 -10.09375,4.21875 0,7.09375 10.09375,4.21875 7.28125,1.21875 2.71875,-0.21875 1.4375,10.90625 -2.6875,0.5 -6.71875,3.03125 -8.65625,6.6875 1.8125,6.84375 10.875,1.46875 7.3125,-0.71875 2.59375,-0.9375 4.21875,10.1875 -2.5,1.15625 -5.6875,4.65625 -6.625,8.71875 3.53125,6.15625 10.875,-1.40625 6.875,-2.59375 2.25,-1.5625 6.71875,8.75 -2.09375,1.75 -4.3125,6 -4.15625,10.125 5.03125,5 10.125,-4.15625 6,-4.28125 1.75,-2.09375 8.75,6.71875 -1.5625,2.25 -2.59375,6.875 -1.40625,10.875 6.15625,3.53125 8.6875,-6.625 4.6875,-5.71875 1.15625,-2.46875 10.1875,4.21875 -0.9375,2.59375 -0.71875,7.3125 1.46875,10.875 6.84375,1.8125 6.6875,-8.65625 3.03125,-6.71875 0.5,-2.6875 10.90625,1.4375 -0.21875,2.71875 1.1875,7.28125 4.25,10.09375 7.0625,0 4.25,-10.09375 1.1875,-7.28125 -0.21875,-2.71875 10.90625,-1.4375 0.5,2.6875 3.03125,6.71875 6.6875,8.65625 6.84375,-1.8125 1.46875,-10.875 -0.71875,-7.3125 -0.90625,-2.59375 10.15625,-4.21875 1.15625,2.46875 4.6875,5.71875 8.71875,6.625 6.125,-3.53125 -1.40625,-10.875 -2.59375,-6.875 -1.5625,-2.25 8.75,-6.71875 1.78125,2.09375 5.96875,4.28125 10.125,4.15625 5.03125,-5 -4.15625,-10.125 -4.3125,-6 -2.09375,-1.75 6.71875,-8.75 2.25,1.5625 6.90625,2.59375 10.84375,1.40625 3.5625,-6.15625 -6.65625,-8.71875 -5.6875,-4.65625 -2.46875,-1.15625 4.1875,-10.1875 2.59375,0.9375 7.34375,0.71875 10.84375,-1.46875 1.84375,-6.84375 -8.6875,-6.6875 -6.71875,-3.03125 -2.6875,-0.5 1.4375,-10.90625 2.71875,0.21875 7.28125,-1.21875 10.125,-4.21875 0,-7.09375 -10.125,-4.21875 -7.28125,-1.1875 -2.71875,0.21875 -1.4375,-10.90625 2.6875,-0.5 L 401.25,160 l 8.6875,-6.6875 -1.84375,-6.84375 L 397.25,145 l -7.34375,0.71875 -2.59375,0.90625 -4.1875,-10.15625 2.46875,-1.1875 5.6875,-4.65625 6.65625,-8.71875 -3.5625,-6.125 -10.84375,1.375 -6.90625,2.625 -2.25,1.53125 -6.71875,-8.71875 2.09375,-1.78125 4.3125,-5.96875 4.15625,-10.15625 -5.03125,-5 -10.125,4.15625 -5.96875,4.3125 -1.78125,2.0625 -8.75,-6.6875 1.5625,-2.25 2.59375,-6.90625 1.40625,-10.84375 -6.125,-3.5625 -8.71875,6.65625 -4.6875,5.6875 -1.15625,2.46875 L 321.28125,80.5625 322.1875,78 l 0.71875,-7.34375 -1.46875,-10.84375 -6.84375,-1.84375 -6.6875,8.6875 -3.03125,6.71875 -0.5,2.6875 -10.90625,-1.4375 0.21875,-2.75 -1.1875,-7.25 -4.25,-10.125 -7.0625,0 z m 3.53125,94.03125 c 19.13569,0 34.65625,15.52056 34.65625,34.65625 0,19.13569 -15.52056,34.65625 -34.65625,34.65625 -19.13569,0 -34.65625,-15.52056 -34.65625,-34.65625 0,-19.13569 15.52056,-34.65625 34.65625,-34.65625 z"
     id="path4807" />
  <path
     inkscape:connector-curvature="0"
     id="path4592"
     d="m 128.65624,35.125 -5.46875,9.5625 -0.6875,3.5 0.34375,6.125 -10.96875,1.84375 -1.71875,-5.875 -1.78125,-3.09375 -8.3125,-7.25 -5.40625,2.5 0.0313,11 1.1875,3.375 3.3125,5.125 -8.5625,7.09375 -4.40625,-4.25 -3.09375,-1.75 -10.8125,-2.125 -3.4375,4.84375 5.53125,9.53125 2.6875,2.34375 5.46875,2.78125 -3.875,10.40625 -5.96875,-1.46875 -3.5625,0 -10.40625,3.59375 -0.5625,5.9375 9.5625,5.4375 3.5,0.6875 6.125,-0.3125 1.84375,10.96875 -5.875,1.6875 -3.09375,1.8125 -7.21875,8.28125 2.46875,5.4375 11,-0.0625 3.375,-1.15625 5.125,-3.34375 7.09375,8.5625 -4.25,4.4375 -1.75,3.09375 -2.125,10.8125 4.84375,3.4375 9.53125,-5.53125 2.34375,-2.71875 2.78125,-5.4375 10.40625,3.875 -1.46875,5.9375 0.0313,3.59375 3.5625,10.40625 5.9375,0.5625 5.4375,-9.5625 0.6875,-3.5 -0.3125,-6.125 10.96875,-1.84375 1.6875,5.875 1.8125,3.09375 8.28125,7.21875 5.4375,-2.46875 -0.0625,-11 -1.15625,-3.375 -3.34375,-5.15625 8.5625,-7.0625 4.4375,4.21875 3.09375,1.78125 10.8125,2.125 3.4375,-4.875 -5.53125,-9.5 -2.6875,-2.34375 -5.46875,-2.78125 3.875,-10.40625 5.9375,1.4375 3.59375,0 10.40625,-3.5625 0.5625,-5.9375 -9.5625,-5.46875 -3.5,-0.6875 -6.125,0.3125 -1.84375,-10.9375 5.875,-1.71875 3.09375,-1.78125 7.21875,-8.3125 -2.46875,-5.40625 -11,0.0313 -3.375,1.1875 -5.15625,3.3125 -7.0625,-8.5625 4.21875,-4.40625 1.78125,-3.09375 2.125,-10.8125 -4.875,-3.46875 -9.5,5.5625 -2.34375,2.6875 -2.78125,5.46875 -10.40625,-3.875 1.4375,-5.96875 0,-3.5625 -3.5625,-10.40625 -5.9375,-0.5625 z m -3.5625,42.75 c 0.82239,-0.006 1.66362,0.0458 2.5,0.125 13.38211,1.26788 23.20538,13.14914 21.9375,26.53125 -1.26788,13.38211 -13.14914,23.20538 -26.53125,21.9375 -13.38211,-1.26788 -23.20538,-13.14914 -21.9375,-26.53125 1.18863,-12.54573 11.69533,-21.97927 24.03125,-22.0625 z"
     style="fill:#e57933;fill-opacity:1;stroke:none;filter:url(#filter5445)" />
  <path
     sodipodi:nodetypes="ccczcccsc"
     inkscape:connector-curvature="0"
     id="path5171"
     d="M 100.71875,22.26565 24.5,21.93755 c 0,0 -0.86311,90.4097 -0.9375,177.6875 0,0 0.21616,5.53212 6.64063,6 6.42446,0.46788 6.64062,-6 6.64062,-6 0,0 -0.57514,-166.05681 0,-166.16407 0.57514,-0.10726 63.875,0 63.875,0 0,0 10.14872,2.10854 10,-5.85158 -0.1432,-7.66484 -10,-5.34375 -10,-5.34375 z"
     style="font-size:medium;font-style:normal;font-variant:normal;font-weight:normal;font-stretch:normal;text-indent:0;text-align:start;text-decoration:none;line-height:normal;letter-spacing:normal;word-spacing:normal;text-transform:none;direction:ltr;block-progression:tb;writing-mode:lr-tb;text-anchor:start;baseline-shift:baseline;color:#000000;fill:#ff0000;fill-opacity:1;stroke:none;stroke-width:1.3943156;marker:none;visibility:visible;display:inline;overflow:visible;enable-background:accumulate;font-family:Sans;-inkscape-font-specification:Sans" />
  <path
     sodipodi:nodetypes="ccczcccsc"
     inkscape:connector-curvature="0"
     id="path5181"
     d="m 435.24442,255.48259 0,67.5079 c 0,0 -129.36738,1.17637 -216.64017,0.23857 0,0 -5.52924,-0.2803 -5.92259,-6.70977 -0.39334,-6.42945 6.07661,-6.57059 6.07661,-6.57059 0,0 205.08518,1.8462 205.19911,1.27234 0.11392,-0.57386 0,-55.86828 0,-55.86828 0,0 -1.88643,-10.17249 6.07143,-9.93147 7.66266,0.23208 5.21561,10.0613 5.21561,10.0613 z"
     style="font-size:medium;font-style:normal;font-variant:normal;font-weight:normal;font-stretch:normal;text-indent:0;text-align:start;text-decoration:none;line-height:normal;letter-spacing:normal;word-spacing:normal;text-transform:none;direction:ltr;block-progression:tb;writing-mode:lr-tb;text-anchor:start;baseline-shift:baseline;color:#000000;fill:#0000ff;fill-opacity:1;stroke:none;stroke-width:1.3943156;marker:none;visibility:visible;display:inline;overflow:visible;enable-background:accumulate;font-family:Sans;-inkscape-font-specification:Sans" />
  <path
     style="font-size:medium;font-style:normal;font-variant:normal;font-weight:normal;font-stretch:normal;text-indent:0;text-align:start;text-decoration:none;line-height:normal;letter-spacing:normal;word-spacing:normal;text-transform:none;direction:ltr;block-progression:tb;writing-mode:lr-tb;text-anchor:start;baseline-shift:baseline;color:#000000;fill:#e57933;fill-opacity:1;stroke:none;stroke-width:1.3943156;marker:none;visibility:visible;display:inline;overflow:visible;enable-background:accumulate;font-family:Sans;-inkscape-font-specification:Sans"
     d="m 436.56926,97.48399 0.4083,-74.21847 c 0,0 -113.69724,-1.02113 -199.76995,-1.16234 0,0 -5.4559,0.21192 -5.92217,6.63603 -0.46627,6.4241 5.91214,6.64521 5.91214,6.64521 0,0 188.30098,-0.3592 188.40633,0.21603 0.10535,0.57522 -0.0754,61.87496 -0.0754,61.87496 0,0 -2.08709,10.1471 5.76323,10.00448 7.55912,-0.13733 5.27752,-9.9959 5.27752,-9.9959 z"
     id="path5183"
     inkscape:connector-curvature="0"
     sodipodi:nodetypes="ccczcccsc" />
  <g
     style="fill:#0000ff;fill-opacity:1;stroke:none"
     id="g5236"
     transform="matrix(1.4513679,0.40831773,-0.40831773,1.4513679,115.77586,242.45006)"
     inkscape:label="Gear12">
    <path
       inkscape:connector-curvature="0"
       style="fill:#0000ff;fill-opacity:1;stroke:none"
       d="m 281.09375,583.25 -5.84375,1.09375 -2.625,10.6875 0.3125,3.5625 2,5.78125 -10,4.78125 -3.28125,-5.15625 -2.5625,-2.46875 -9.96875,-4.65625 -4.53125,3.875 3.0625,10.5625 2.0625,2.90625 4.625,4.03125 -6.28125,9.15625 -5.40625,-2.84375 -3.46875,-0.84375 -10.96875,0.9375 -2,5.625 7.96875,7.59375 3.21875,1.53125 6.03125,1.15625 -0.84375,11.09375 -6.125,0.21875 -3.4375,1 -9.03125,6.3125 1.09375,5.84375 10.71875,2.625 3.53125,-0.3125 5.8125,-2 4.78125,10.03125 -5.15625,3.25 -2.5,2.59375 -4.65625,9.96875 3.875,4.53125 10.59375,-3.09375 2.90625,-2.0625 4.03125,-4.59375 9.15625,6.25 -2.84375,5.4375 -0.84375,3.46875 0.9375,10.96875 5.625,1.96875 7.59375,-7.9375 1.53125,-3.25 1.15625,-6 11.09375,0.84375 0.21875,6.125 1,3.40625 6.3125,9.03125 5.84375,-1.09375 2.625,-10.6875 -0.3125,-3.5625 -2,-5.78125 10.03125,-4.8125 3.25,5.1875 L 322,698 l 9.96875,4.65625 4.53125,-3.875 -3.09375,-10.5625 -2.0625,-2.9375 -4.625,-4 6.28125,-9.1875 5.4375,2.875 3.46875,0.84375 10.96875,-0.96875 1.96875,-5.59375 -7.96875,-7.625 -3.21875,-1.5 -6.03125,-1.1875 0.875,-11.0625 6.125,-0.25 3.40625,-1 9.03125,-6.28125 -1.09375,-5.875 -10.6875,-2.59375 -3.5625,0.3125 -5.78125,1.96875 -4.8125,-10 5.1875,-3.28125 2.46875,-2.5625 4.65625,-9.96875 -3.875,-4.53125 -10.5625,3.0625 -2.9375,2.0625 -4,4.625 -9.1875,-6.28125 2.84375,-5.40625 0.875,-3.46875 -0.96875,-10.96875 -5.625,-1.96875 -7.59375,7.9375 -1.5,3.25 -1.1875,6 -11.0625,-0.84375 -0.25,-6.125 -1,-3.4375 -6.3125,-9 z m 9.96875,42.15625 c 2.007,0.045 4.04067,0.36869 6.0625,0.9375 12.93971,3.64037 20.48412,17.06029 16.84375,30 -3.64037,12.93971 -17.09154,20.48412 -30.03125,16.84375 -12.93971,-3.64037 -20.48412,-17.09154 -16.84375,-30.03125 3.07156,-10.91788 13.13095,-17.993 23.96875,-17.75 z"
       transform="matrix(0.63847128,-0.17962306,0.17962306,0.63847128,-302.70316,-365.43611)"
       id="path5238" />
  </g>
  <path
     style="font-size:medium;font-style:normal;font-variant:normal;font-weight:normal;font-stretch:normal;text-indent:0;text-align:start;text-decoration:none;line-height:normal;letter-spacing:normal;word-spacing:normal;text-transform:none;direction:ltr;block-progression:tb;writing-mode:lr-tb;text-anchor:start;baseline-shift:baseline;opacity:0.8;color:#000000;fill:#ff0000;fill-opacity:1;stroke:none;stroke-width:1.3943156;marker:none;visibility:visible;display:inline;overflow:visible;filter:url(#filter3844);enable-background:accumulate;font-family:Sans;-inkscape-font-specification:Sans"
     d="M 101.01055,29.09211 38.7918,28.76401 c 0,0 -0.86311,150.4097 -0.9375,237.6875 0,0 0.21616,5.53212 6.64063,6 6.42446,0.46788 6.64062,-6 6.64062,-6 0,0 -0.57514,-226.05681 0,-226.16407 0.57514,-0.10726 49.875,0 49.875,0 0,0 10.14872,2.10854 10,-5.85158 -0.1432,-7.66484 -10,-5.34375 -10,-5.34375 z"
     id="path5354"
     inkscape:connector-curvature="0"
     sodipodi:nodetypes="ccczcccsc" />
  <path
     style="font-size:medium;font-style:normal;font-variant:normal;font-weight:normal;font-stretch:normal;text-indent:0;text-align:start;text-decoration:none;line-height:normal;letter-spacing:normal;word-spacing:normal;text-transform:none;direction:ltr;block-progression:tb;writing-mode:lr-tb;text-anchor:start;baseline-shift:baseline;opacity:0.8;color:#000000;fill:#0000ff;fill-opacity:1;stroke:none;stroke-width:1.3943156;marker:none;visibility:visible;display:inline;overflow:visible;filter:url(#filter5465);enable-background:accumulate;font-family:Sans;-inkscape-font-specification:Sans"
     d="m 452.117,205.8335 0,129.5079 c 0,0 -211.36738,1.17637 -298.64017,0.23857 0,0 -5.52924,-0.2803 -5.92259,-6.70977 -0.39334,-6.42945 6.07661,-6.57059 6.07661,-6.57059 0,0 287.08518,1.8462 287.19911,1.27234 0.11392,-0.57386 0,-117.86828 0,-117.86828 0,0 -1.88643,-10.17249 6.07143,-9.93147 7.66266,0.23208 5.21561,10.0613 5.21561,10.0613 z"
     id="path5372"
     inkscape:connector-curvature="0"
     sodipodi:nodetypes="ccczcccsc" />
  <path
     id="path3798"
     d="m 455.53125,466.03125 -4.25,10.125 -1.1875,7.25 0.21875,2.75 -10.90625,1.4375 -0.5,-2.6875 -3.03125,-6.71875 -6.6875,-8.6875 -6.84375,1.84375 -1.46875,10.84375 0.71875,7.34375 0.9375,2.5625 -10.1875,4.21875 -1.15625,-2.46875 -4.6875,-5.6875 -8.6875,-6.65625 -6.15625,3.5625 1.40625,10.84375 2.59375,6.90625 1.5625,2.25 -8.75,6.6875 -1.75,-2.0625 -6,-4.3125 -10.125,-4.15625 -5.03125,5 4.15625,10.15625 4.3125,5.96875 2.09375,1.78125 -6.71875,8.71875 -2.25,-1.53125 -6.875,-2.625 -10.875,-1.375 -3.53125,6.125 6.625,8.71875 5.6875,4.65625 2.5,1.1875 -4.21875,10.15625 -2.59375,-0.90625 -7.3125,-0.71875 -10.875,1.46875 -1.8125,6.84375 8.65625,6.6875 6.71875,3.03125 2.6875,0.5 -1.4375,10.90625 -2.71875,-0.21875 -7.28125,1.1875 -10.09375,4.21875 0,7.09375 10.09375,4.21875 7.28125,1.21875 2.71875,-0.21875 1.4375,10.90625 -2.6875,0.5 -6.71875,3.03125 -8.65625,6.6875 1.8125,6.84375 10.875,1.46875 7.3125,-0.71875 2.59375,-0.9375 4.21875,10.1875 -2.5,1.15625 -5.6875,4.65625 -6.625,8.71875 3.53125,6.15625 10.875,-1.40625 6.875,-2.59375 2.25,-1.5625 6.71875,8.75 -2.09375,1.75 -4.3125,6 -4.15625,10.125 5.03125,5 10.125,-4.15625 6,-4.28125 1.75,-2.09375 8.75,6.71875 -1.5625,2.25 -2.59375,6.875 -1.40625,10.875 6.15625,3.53125 8.6875,-6.625 4.6875,-5.71875 1.15625,-2.46875 10.1875,4.21875 -0.9375,2.59375 -0.71875,7.3125 1.46875,10.875 6.84375,1.8125 6.6875,-8.65625 3.03125,-6.71875 0.5,-2.6875 10.90625,1.4375 -0.21875,2.71875 1.1875,7.28125 4.25,10.09375 7.0625,0 4.25,-10.09375 1.1875,-7.28125 -0.21875,-2.71875 10.90625,-1.4375 0.5,2.6875 3.03125,6.71875 6.6875,8.65625 6.84375,-1.8125 1.46875,-10.875 -0.71875,-7.3125 -0.90625,-2.59375 10.15625,-4.21875 1.15625,2.46875 4.6875,5.71875 8.71875,6.625 6.125,-3.53125 -1.40625,-10.875 -2.59375,-6.875 -1.5625,-2.25 8.75,-6.71875 1.78125,2.09375 5.96875,4.28125 10.125,4.15625 5.03125,-5 -4.15625,-10.125 -4.3125,-6 -2.09375,-1.75 6.71875,-8.75 2.25,1.5625 6.90625,2.59375 10.84375,1.40625 3.5625,-6.15625 -6.65625,-8.71875 -5.6875,-4.65625 -2.46875,-1.15625 4.1875,-10.1875 2.59375,0.9375 7.34375,0.71875 10.84375,-1.46875 1.84375,-6.84375 -8.6875,-6.6875 -6.71875,-3.03125 -2.6875,-0.5 1.4375,-10.90625 2.71875,0.21875 7.28125,-1.21875 10.125,-4.21875 0,-7.09375 -10.125,-4.21875 -7.28125,-1.1875 -2.71875,0.21875 -1.4375,-10.90625 2.6875,-0.5 6.71875,-3.03125 8.6875,-6.6875 L 582.4375,558 571.59375,556.53125 564.25,557.25 561.65625,558.15625 557.46875,548 l 2.46875,-1.1875 5.6875,-4.65625 6.65625,-8.71875 -3.5625,-6.125 -10.84375,1.375 -6.90625,2.625 -2.25,1.53125 L 542,524.125 l 2.09375,-1.78125 4.3125,-5.96875 4.15625,-10.15625 -5.03125,-5 -10.125,4.15625 -5.96875,4.3125 -1.78125,2.0625 -8.75,-6.6875 1.5625,-2.25 2.59375,-6.90625 1.40625,-10.84375 -6.125,-3.5625 -8.71875,6.65625 -4.6875,5.6875 -1.15625,2.46875 -10.15625,-4.21875 0.90625,-2.5625 0.71875,-7.34375 -1.46875,-10.84375 -6.84375,-1.84375 -6.6875,8.6875 -3.03125,6.71875 -0.5,2.6875 -10.90625,-1.4375 0.21875,-2.75 -1.1875,-7.25 -4.25,-10.125 -7.0625,0 z m 3.53125,94.03125 c 19.13569,0 34.65625,15.52056 34.65625,34.65625 0,19.13569 -15.52056,34.65625 -34.65625,34.65625 -19.13569,0 -34.65625,-15.52056 -34.65625,-34.65625 0,-19.13569 15.52056,-34.65625 34.65625,-34.65625 z"
     style="fill:url(#linearGradient3881);fill-opacity:1;stroke:#000000;stroke-width:0;stroke-miterlimit:4;stroke-opacity:1;stroke-dasharray:none;filter:url(#filter3852)"
     inkscape:connector-curvature="0"
     transform="matrix(0.96922169,0.24618959,-0.24618959,0.96922169,-20.80478,-509.24808)" />
  <text
     xml:space="preserve"
     style="font-size:40px;font-style:oblique;font-variant:normal;font-weight:bold;font-stretch:normal;line-height:125%;letter-spacing:0px;word-spacing:0px;fill:#000000;fill-opacity:1;stroke:none;font-family:SF Automaton;-inkscape-font-specification:SF Automaton Bold Oblique"
     x="75.972046"
     y="365.05927"
     id="text3008"
     sodipodi:linespacing="125%"><tspan
       sodipodi:role="line"
       id="tspan3010"
       x="75.972046"
       y="365.05927" /></text>
  <g
     style="font-size:100.50583649px;font-style:normal;font-variant:normal;font-weight:normal;font-stretch:normal;line-height:125%;letter-spacing:0px;word-spacing:0px;fill:#000000;fill-opacity:1;stroke:none;font-family:SF Automaton Extended;-inkscape-font-specification:SF Automaton Extended"
     id="text3012"
     transform="translate(-174.34375,-411.53125)">
    <path
       inkscape:connector-curvature="0"
       d="m 292.75972,809.28863 c -8e-5,5.10383 -2.29025,9.5533 -6.87052,13.34844 -4.58041,3.72971 -9.99503,5.59456 -16.24386,5.59456 l -57.27066,0 0,-66.98753 57.27066,0 c 6.24883,6e-5 11.66345,1.86492 16.24386,5.59456 4.58027,3.72977 6.87044,8.16288 6.87052,13.29936 -8e-5,6.64154 -3.45169,11.49997 -10.35485,14.5753 6.90316,3.07541 10.35477,7.93384 10.35485,14.57531 M 272.688,782.98437 c -6e-5,-1.34134 -0.60532,-2.50278 -1.81578,-3.48433 -1.21058,-1.01417 -2.6174,-1.52128 -4.22046,-1.52133 l -34.15628,0 0,10.0604 34.15628,0 c 1.60306,4e-5 3.00988,-0.50707 4.22046,-1.52133 1.21046,-1.01418 1.81572,-2.19198 1.81578,-3.53341 m 0,23.45791 c -6e-5,-1.34137 -0.60532,-2.50281 -1.81578,-3.48434 -1.21058,-1.01419 -2.6174,-1.5213 -4.22046,-1.52132 l -34.15628,0 0,10.06039 34.15628,0 c 1.60306,2e-5 3.00988,-0.50709 4.22046,-1.52132 1.21046,-1.0142 1.81572,-2.19201 1.81578,-3.53341"
       id="path3834"
       style="fill:#000000;fill-opacity:1" />
    <path
       inkscape:connector-curvature="0"
       d="m 373.24291,807.27655 c -8e-5,5.75817 -2.45383,10.69839 -7.36127,14.82069 -4.97301,4.08959 -10.89473,6.13439 -17.76519,6.13439 l -30.13212,0 c -6.87053,0 -12.79226,-2.0448 -17.76519,-6.13439 -4.90751,-4.1223 -7.36127,-9.06252 -7.36127,-14.82069 l 0,-25.12646 c 0,-5.72537 2.45376,-10.63288 7.36127,-14.72253 4.9075,-4.12224 10.82922,-6.1834 17.76519,-6.18346 l 30.13212,0 c 6.93589,6e-5 12.85761,2.06122 17.76519,6.18346 4.90744,4.08965 7.36119,8.99716 7.36127,14.72253 l 0,25.12646 m -20.07172,-1.66855 0,-21.78935 c -6e-5,-1.60308 -0.68711,-2.97718 -2.06116,-4.12231 -1.43959,-1.14504 -3.10814,-1.71758 -5.00566,-1.71763 l -26.10796,0 c -1.8976,5e-5 -3.56615,0.57259 -5.00566,1.71763 -1.34141,1.14513 -2.0121,2.51923 -2.01208,4.12231 l 0,21.78935 c -2e-5,1.63586 0.67067,3.02632 2.01208,4.17139 1.43951,1.1451 3.10806,1.71764 5.00566,1.71762 l 26.10796,0 c 1.89752,2e-5 3.56607,-0.57252 5.00566,-1.71762 1.37405,-1.11235 2.0611,-2.50281 2.06116,-4.17139"
       id="path3836"
       style="fill:#000000;fill-opacity:1" />
    <path
       inkscape:connector-curvature="0"
       d="m 453.7261,807.27655 c -8e-5,5.75817 -2.45383,10.69839 -7.36126,14.82069 -4.97302,4.08959 -10.89474,6.13439 -17.7652,6.13439 l -30.13212,0 c -6.87053,0 -12.79226,-2.0448 -17.76519,-6.13439 -4.90751,-4.1223 -7.36127,-9.06252 -7.36127,-14.82069 l 0,-25.12646 c 0,-5.72537 2.45376,-10.63288 7.36127,-14.72253 4.9075,-4.12224 10.82923,-6.1834 17.76519,-6.18346 l 30.13212,0 c 6.93589,6e-5 12.85762,2.06122 17.7652,6.18346 4.90743,4.08965 7.36118,8.99716 7.36126,14.72253 l 0,25.12646 m -20.07172,-1.66855 0,-21.78935 c -6e-5,-1.60308 -0.68711,-2.97718 -2.06115,-4.12231 -1.4396,-1.14504 -3.10815,-1.71758 -5.00567,-1.71763 l -26.10796,0 c -1.89759,5e-5 -3.56615,0.57259 -5.00566,1.71763 -1.34141,1.14513 -2.0121,2.51923 -2.01208,4.12231 l 0,21.78935 c -2e-5,1.63586 0.67067,3.02632 2.01208,4.17139 1.43951,1.1451 3.10807,1.71764 5.00566,1.71762 l 26.10796,0 c 1.89752,2e-5 3.56607,-0.57252 5.00567,-1.71762 1.37404,-1.11235 2.06109,-2.50281 2.06115,-4.17139"
       id="path3838"
       style="fill:#000000;fill-opacity:1" />
    <path
       inkscape:connector-curvature="0"
       d="m 524.19798,777.97871 -25.12646,0 0,50.25292 -20.1208,0 0,-50.25292 -25.12646,0 0,-16.73461 70.37372,0 0,16.73461"
       id="path3840"
       style="fill:#000000;fill-opacity:1" />
    <path
       inkscape:connector-curvature="0"
       d="m 604.68117,828.23163 -20.07173,0 0,-26.79501 -40.19252,0 0,26.79501 -20.12079,0 0,-66.98753 20.12079,0 0,26.79501 40.19252,0 0,-26.79501 20.07173,0 0,66.98753"
       id="path3842"
       style="fill:#000000;fill-opacity:1" />
  </g>
  <path
     style="fill:url(#linearGradient3895);fill-opacity:1;stroke:none;filter:url(#filter3872)"
     d="m 161.63957,45.71742 -9.50539,5.56742 -2.33962,2.69237 -2.75303,5.48221 -10.42942,-3.86526 1.43624,-5.95037 -0.003,-3.56989 -3.59623,-10.42723 -5.9331,-0.52533 -5.45238,9.55366 -0.65155,3.518 0.3193,6.09396 -10.95819,1.88565 -1.70356,-5.88009 -1.81084,-3.05853 -8.31694,-7.22871 -5.39351,2.48765 0.0482,11.01985 1.16281,3.371 3.35649,5.13582 -8.54377,7.09294 -4.44384,-4.24682 -3.08903,-1.77462 -10.81342,-2.06763 -3.44544,4.86819 5.58298,9.47829 2.69237,2.33962 5.46664,2.78013 -3.86525,10.42942 -5.93481,-1.46334 -3.58546,0.0305 -10.38457,3.5847 -0.56798,5.94463 9.5692,5.42533 3.50243,0.67864 6.10952,-0.3464 1.88566,10.9582 -5.89566,1.73065 -3.05853,1.81084 -7.22871,8.31694 2.48765,5.39351 11.01985,-0.0482 3.38657,-1.18991 5.12025,-3.32939 7.09294,8.54376 -4.23125,4.41675 -1.76305,3.13172 -2.09472,10.79785 4.86818,3.44544 9.4783,-5.58299 2.33961,-2.69236 2.78014,-5.46664 10.42941,3.86525 -1.46334,5.9348 0.0305,3.58546 3.58471,10.38457 5.94462,0.56799 5.42533,-9.5692 0.67864,-3.50243 -0.33083,-6.13662 10.94263,-1.85856 1.74622,5.86856 1.79527,3.08563 8.31695,7.22871 5.40907,-2.51474 -0.0638,-10.99276 -1.16281,-3.37101 -3.35649,-5.13581 8.54376,-7.09294 4.43232,4.20415 3.11613,1.79019 10.79785,2.09472 3.44544,-4.86818 -5.56742,-9.50539 -2.69237,-2.33962 -5.46664,-2.78013 3.84969,-10.40232 5.95037,1.43624 3.56989,-0.003 10.40014,-3.6118 0.55242,-5.91753 -9.55366,-5.45239 -3.518,-0.65154 -6.12105,0.30373 -1.85856,-10.94262 5.85299,-1.71913 3.08563,-1.79527 7.22871,-8.31694 -2.49917,-5.43617 -11.00833,0.0909 -3.371,1.16282 -5.13582,3.35648 -7.09294,-8.54376 4.21972,-4.45941 1.77462,-3.08903 2.09473,-10.79785 -4.86819,-3.44544 z m -24.38448,35.29379 c 0.71608,0.40446 1.41971,0.86842 2.10548,1.35373 10.97201,7.76553 13.57122,22.96109 5.80569,33.9331 -7.76552,10.97201 -22.96108,13.57122 -33.93309,5.80569 -10.97201,-7.76552 -13.57122,-22.96109 -5.8057,-33.93309 7.28018,-10.28627 21.08972,-13.23227 31.82762,-7.15943 z"
     id="path3808"
     inkscape:connector-curvature="0" />
  <g
     inkscape:label="Gear12"
     transform="matrix(1.4513679,0.40831773,-0.40831773,1.4513679,115.77586,242.45006)"
     id="g4022"
     style="fill:url(#linearGradient3887);fill-opacity:1;stroke:none;filter:url(#filter5449)">
    <path
       inkscape:connector-curvature="0"
       id="path4024"
       transform="matrix(0.63847128,-0.17962306,0.17962306,0.63847128,-302.70316,-365.43611)"
       d="m 281.09375,583.25 -5.84375,1.09375 -2.625,10.6875 0.3125,3.5625 2,5.78125 -10,4.78125 -3.28125,-5.15625 -2.5625,-2.46875 -9.96875,-4.65625 -4.53125,3.875 3.0625,10.5625 2.0625,2.90625 4.625,4.03125 -6.28125,9.15625 -5.40625,-2.84375 -3.46875,-0.84375 -10.96875,0.9375 -2,5.625 7.96875,7.59375 3.21875,1.53125 6.03125,1.15625 -0.84375,11.09375 -6.125,0.21875 -3.4375,1 -9.03125,6.3125 1.09375,5.84375 10.71875,2.625 3.53125,-0.3125 5.8125,-2 4.78125,10.03125 -5.15625,3.25 -2.5,2.59375 -4.65625,9.96875 3.875,4.53125 10.59375,-3.09375 2.90625,-2.0625 4.03125,-4.59375 9.15625,6.25 -2.84375,5.4375 -0.84375,3.46875 0.9375,10.96875 5.625,1.96875 7.59375,-7.9375 1.53125,-3.25 1.15625,-6 11.09375,0.84375 0.21875,6.125 1,3.40625 6.3125,9.03125 5.84375,-1.09375 2.625,-10.6875 -0.3125,-3.5625 -2,-5.78125 10.03125,-4.8125 3.25,5.1875 L 322,698 l 9.96875,4.65625 4.53125,-3.875 -3.09375,-10.5625 -2.0625,-2.9375 -4.625,-4 6.28125,-9.1875 5.4375,2.875 3.46875,0.84375 10.96875,-0.96875 1.96875,-5.59375 -7.96875,-7.625 -3.21875,-1.5 -6.03125,-1.1875 0.875,-11.0625 6.125,-0.25 3.40625,-1 9.03125,-6.28125 -1.09375,-5.875 -10.6875,-2.59375 -3.5625,0.3125 -5.78125,1.96875 -4.8125,-10 5.1875,-3.28125 2.46875,-2.5625 4.65625,-9.96875 -3.875,-4.53125 -10.5625,3.0625 -2.9375,2.0625 -4,4.625 -9.1875,-6.28125 2.84375,-5.40625 0.875,-3.46875 -0.96875,-10.96875 -5.625,-1.96875 -7.59375,7.9375 -1.5,3.25 -1.1875,6 -11.0625,-0.84375 -0.25,-6.125 -1,-3.4375 -6.3125,-9 z m 9.96875,42.15625 c 2.007,0.045 4.04067,0.36869 6.0625,0.9375 12.93971,3.64037 20.48412,17.06029 16.84375,30 -3.64037,12.93971 -17.09154,20.48412 -30.03125,16.84375 -12.93971,-3.64037 -20.48412,-17.09154 -16.84375,-30.03125 3.07156,-10.91788 13.13095,-17.993 23.96875,-17.75 z"
       style="fill:url(#linearGradient3885);fill-opacity:1;stroke:none" />
  </g>
  <path
     inkscape:connector-curvature="0"
     id="path3828"
     d="m 325.58955,593.16718 -9.50539,5.56742 -2.33962,2.69237 -2.75303,5.48221 -10.42942,-3.86526 1.43624,-5.95037 -0.003,-3.56989 -3.59623,-10.42723 -5.9331,-0.52533 -5.45238,9.55366 -0.65155,3.518 0.3193,6.09396 -10.95819,1.88565 -1.70356,-5.88009 -1.81084,-3.05853 -8.31694,-7.22871 -5.39351,2.48765 0.0482,11.01985 1.16281,3.371 3.35649,5.13582 -8.54377,7.09294 -4.44384,-4.24682 -3.08903,-1.77462 -10.81342,-2.06763 -3.44544,4.86819 5.58298,9.47829 2.69237,2.33962 5.46664,2.78013 -3.86525,10.42942 -5.93481,-1.46334 -3.58546,0.0305 -10.38457,3.5847 -0.56798,5.94463 9.5692,5.42533 3.50243,0.67864 6.10952,-0.3464 1.88566,10.9582 -5.89566,1.73065 -3.05853,1.81084 -7.22871,8.31694 2.48765,5.39351 11.01985,-0.0482 3.38657,-1.18991 5.12025,-3.32939 7.09294,8.54376 -4.23125,4.41675 -1.76305,3.13172 -2.09472,10.79785 4.86818,3.44544 9.4783,-5.58299 2.33961,-2.69236 2.78014,-5.46664 10.42941,3.86525 -1.46334,5.9348 0.0305,3.58546 3.58471,10.38457 5.94462,0.56799 5.42533,-9.5692 0.67864,-3.50243 -0.33083,-6.13662 10.94263,-1.85856 1.74622,5.86856 1.79527,3.08563 8.31695,7.22871 5.40907,-2.51474 -0.0638,-10.99276 -1.16281,-3.37101 -3.35649,-5.13581 8.54376,-7.09294 4.43232,4.20415 3.11613,1.79019 10.79785,2.09472 3.44544,-4.86818 -5.56742,-9.50539 -2.69237,-2.33962 -5.46664,-2.78013 3.84969,-10.40232 5.95037,1.43624 3.56989,-0.003 10.40014,-3.6118 0.55242,-5.91753 -9.55366,-5.45239 -3.518,-0.65154 -6.12105,0.30373 -1.85856,-10.94262 5.85299,-1.71913 3.08563,-1.79527 7.22871,-8.31694 -2.49917,-5.43617 -11.00833,0.0909 -3.371,1.16282 -5.13582,3.35648 -7.09294,-8.54376 4.21972,-4.45941 1.77462,-3.08903 2.09473,-10.79785 -4.86819,-3.44544 z m -24.38448,35.29379 c 0.71608,0.40446 1.41971,0.86842 2.10548,1.35373 10.97201,7.76553 -0.86779,15.44345 -8.63332,26.41546 -7.76552,10.97201 -8.52207,21.08886 -19.49408,13.32333 -10.97201,-7.76552 0.41976,-13.25272 8.18528,-24.22472 7.28018,-10.28627 7.09874,-22.94064 17.83664,-16.8678 z"
     style="fill:url(#linearGradient3889);fill-opacity:1;stroke:none;filter:url(#filter3848)"
     transform="matrix(0.96589513,0.25893356,-0.25893356,0.96589513,3.74602,-464.26969)"
     sodipodi:nodetypes="ccccccccccccccccccccccccccccccccccccccccccccccccccccccccccccccccccccccccccccccccccccccccccccccccccccsssc" />
</svg>
